<svg width="24" height="24" viewBox="0 0 24 24" fill="none" xmlns="http://www.w3.org/2000/svg">
<rect width="24" height="24" rx="4" fill="#F3EFFB"/>
<g clip-path="url(#clip0)">
<path d="M12 15.3333C13.841 15.3333 15.3334 13.8409 15.3334 12C15.3334 10.159 13.841 8.66666 12 8.66666C10.1591 8.66666 8.66669 10.159 8.66669 12C8.66669 13.8409 10.1591 15.3333 12 15.3333Z" stroke="#787A87" stroke-width="1.5" stroke-linecap="round" stroke-linejoin="round"/>
<path d="M12 4.66666V5.99999" stroke="#787A87" stroke-width="1.5" stroke-linecap="round" stroke-linejoin="round"/>
<path d="M12 18V19.3333" stroke="#787A87" stroke-width="1.5" stroke-linecap="round" stroke-linejoin="round"/>
<path d="M6.81335 6.81335L7.76002 7.76002" stroke="#787A87" stroke-width="1.5" stroke-linecap="round" stroke-linejoin="round"/>
<path d="M16.24 16.24L17.1867 17.1867" stroke="#787A87" stroke-width="1.5" stroke-linecap="round" stroke-linejoin="round"/>
<path d="M4.66669 12H6.00002" stroke="#787A87" stroke-width="1.5" stroke-linecap="round" stroke-linejoin="round"/>
<path d="M18 12H19.3333" stroke="#787A87" stroke-width="1.5" stroke-linecap="round" stroke-linejoin="round"/>
<path d="M6.81335 17.1867L7.76002 16.24" stroke="#787A87" stroke-width="1.5" stroke-linecap="round" stroke-linejoin="round"/>
<path d="M16.24 7.76002L17.1867 6.81335" stroke="#787A87" stroke-width="1.5" stroke-linecap="round" stroke-linejoin="round"/>
</g>
<defs>
<clipPath id="clip0">
<rect width="16" height="16" fill="white" transform="translate(4 4)"/>
</clipPath>
</defs>
</svg>
