<svg width="24" height="24" viewBox="0 0 24 24" fill="none" xmlns="http://www.w3.org/2000/svg">
<rect width="24" height="24" rx="4" fill="#F3EFFB"/>
<path d="M18 12.5267C17.8951 13.6615 17.4692 14.7429 16.7722 15.6445C16.0751 16.5461 15.1357 17.2305 14.0638 17.6177C12.9919 18.0049 11.832 18.0787 10.7197 17.8307C9.60734 17.5827 8.58866 17.023 7.78281 16.2172C6.97697 15.4113 6.41729 14.3927 6.16927 13.2803C5.92125 12.168 5.99514 11.0081 6.3823 9.9362C6.76946 8.86434 7.45388 7.92491 8.35547 7.22784C9.25706 6.53076 10.3385 6.10487 11.4733 6C10.8089 6.89884 10.4892 8.0063 10.5723 9.12094C10.6555 10.2356 11.1359 11.2834 11.9263 12.0737C12.7166 12.8641 13.7644 13.3445 14.8791 13.4276C15.9937 13.5108 17.1011 13.1911 18 12.5267V12.5267Z" stroke="#787A87" stroke-width="1.5" stroke-linecap="round" stroke-linejoin="round"/>
</svg>
