<svg width="24" height="24" viewBox="0 0 24 24" fill="none" xmlns="http://www.w3.org/2000/svg">
<rect width="24" height="24" rx="4" fill="#F3EFFB"/>
<g clip-path="url(#clip0)">
<path d="M15.3334 16C15.3334 15.1159 14.9822 14.2681 14.357 13.643C13.7319 13.0178 12.8841 12.6667 12 12.6667C11.116 12.6667 10.2681 13.0178 9.643 13.643C9.01788 14.2681 8.66669 15.1159 8.66669 16" stroke="#787A87" stroke-width="1.5" stroke-linecap="round" stroke-linejoin="round"/>
<path d="M12 10V5.33334" stroke="#787A87" stroke-width="1.5" stroke-linecap="round" stroke-linejoin="round"/>
<path d="M6.81335 10.8134L7.76002 11.76" stroke="#787A87" stroke-width="1.5" stroke-linecap="round" stroke-linejoin="round"/>
<path d="M4.66669 16H6.00002" stroke="#787A87" stroke-width="1.5" stroke-linecap="round" stroke-linejoin="round"/>
<path d="M18 16H19.3333" stroke="#787A87" stroke-width="1.5" stroke-linecap="round" stroke-linejoin="round"/>
<path d="M16.24 11.76L17.1867 10.8134" stroke="#787A87" stroke-width="1.5" stroke-linecap="round" stroke-linejoin="round"/>
<path d="M19.3334 18.6667H4.66669" stroke="#787A87" stroke-width="1.5" stroke-linecap="round" stroke-linejoin="round"/>
<path d="M14.6666 7.33334L12 10L9.33331 7.33334" stroke="#787A87" stroke-width="1.5" stroke-linecap="round" stroke-linejoin="round"/>
</g>
<defs>
<clipPath id="clip0">
<rect width="16" height="16" fill="white" transform="translate(4 4)"/>
</clipPath>
</defs>
</svg>
